<svg xmlns="http://www.w3.org/2000/svg" width="744" height="584" viewBox="24.4 -0.6 37.2 29.2"><style>
	.line {
		stroke: #333;
		stroke-width: .09;
		fill: none;
		stroke-linejoin: round;
		stroke-linecap: round;
	}
	.station {
		stroke: none;
	}
	.transit {
		stroke: #555;
		stroke-width: .05;
		fill: #fff;
	}
</style><g transform="translate(0,28.2) scale(1,-1)"><path class="line U1" style="stroke: #55a822;" d="M42 11L43 11"></path><path class="line U6" style="stroke: #6f4e9c;" d="M46 11L46 12"></path><path class="line U1" style="stroke: #55a822;" d="M41 12L42 11"></path><path class="line U7" style="stroke: #3690c0;" d="M30 20L31 19"></path><path class="line U7" style="stroke: #3690c0;" d="M34 16L35 15"></path><path class="line U7" style="stroke: #3690c0;" d="M46 8L47 8"></path><path class="line U2" style="stroke: #ff3300;" d="M32 13L33 13"></path><path class="line U6" style="stroke: #6f4e9c;" d="M46 0L46 1"></path><path class="line U8" style="stroke: #0a3c85;" d="M48 17L48 18"></path><path class="line U9" style="stroke: #ff7300;" d="M39 4L39 5"></path><path class="line U3" style="stroke: #019377;" d="M28 0L29 1"></path><path class="line U6" style="stroke: #6f4e9c;" d="M46 4L46 5"></path><path class="line U7" style="stroke: #3690c0;" d="M59 8L60 8"></path><path class="line U7" style="stroke: #3690c0;" d="M52 8L53 8"></path><path class="line U3" style="stroke: #019377;" d="M37 9L38 10"></path><path class="line U7" style="stroke: #3690c0;" d="M49 8L50 8"></path><path class="line U6" style="stroke: #6f4e9c;" d="M46 10L46 11"></path><path class="line U7" style="stroke: #3690c0;" d="M28 22L29 21"></path><path class="line U9" style="stroke: #ff7300;" d="M47 20L48 21"></path><path class="line U3" style="stroke: #019377;" d="M36 8L37 9"></path><path class="line U6" style="stroke: #6f4e9c;" d="M46 25L46 26"></path><path class="line U3" style="stroke: #019377;" d="M40 12L41 12"></path><path class="line U7" style="stroke: #3690c0;" d="M48 8L49 8"></path><path class="line U6" style="stroke: #6f4e9c;" d="M46 12L46 13"></path><path class="line U2" style="stroke: #ff3300;" d="M52 18L52 19"></path><path class="line U9" style="stroke: #ff7300;" d="M39 9L39 10"></path><path class="line U7" style="stroke: #3690c0;" d="M36 14L37 13"></path><path class="line U2" style="stroke: #ff3300;" d="M51 17L52 18"></path><path class="line U6" style="stroke: #6f4e9c;" d="M46 8L46 9"></path><path class="line U2" style="stroke: #ff3300;" d="M37 13L38 13"></path><path class="line U7" style="stroke: #3690c0;" d="M41 9L42 9"></path><path class="line U3" style="stroke: #019377;" d="M35 7L36 8"></path><path class="line U8" style="stroke: #0a3c85;" d="M48 10L48 11"></path><path class="line U7" style="stroke: #3690c0;" d="M39 9L41 9"></path><path class="line U9" style="stroke: #ff7300;" d="M43 16L44 17"></path><path class="line U7" style="stroke: #3690c0;" d="M37 9L38 9"></path><path class="line U6" style="stroke: #6f4e9c;" d="M46 21L46 22"></path><path class="line U6" style="stroke: #6f4e9c;" d="M46 9L46 10"></path><path class="line U1" style="stroke: #55a822;" d="M46 9L47 9"></path><path class="line U6" style="stroke: #6f4e9c;" d="M46 13L46 14"></path><path class="line U6" style="stroke: #6f4e9c;" d="M46 19L46 20"></path><path class="line U8" style="stroke: #0a3c85;" d="M48 25L48 26"></path><path class="line U6" style="stroke: #6f4e9c;" d="M46 17L46 18"></path><path class="line U2" style="stroke: #ff3300;" d="M31 13L32 13"></path><path class="line U3" style="stroke: #019377;" d="M30 2L31 3"></path><path class="line U2" style="stroke: #ff3300;" d="M39 13L40 13"></path><path class="line U7" style="stroke: #3690c0;" d="M35 15L36 14"></path><path class="line U8" style="stroke: #0a3c85;" d="M48 26L48 27"></path><path class="line U6" style="stroke: #6f4e9c;" d="M46 1L46 2"></path><path class="line U8" style="stroke: #0a3c85;" d="M48 27L48 28"></path><path class="line U7" style="stroke: #3690c0;" d="M58 8L59 8"></path><path class="line U8" style="stroke: #0a3c85;" d="M48 18L48 19"></path><path class="line U3" style="stroke: #019377;" d="M31 3L32 4"></path><path class="line U7" style="stroke: #3690c0;" d="M50 8L51 8"></path><path class="line U9" style="stroke: #ff7300;" d="M39 8L39 9"></path><path class="line U1" style="stroke: #55a822;" d="M45 9L46 9"></path><path class="line U2" style="stroke: #ff3300;" d="M36 13L37 13"></path><path class="line U6" style="stroke: #6f4e9c;" d="M46 7L46 8"></path><path class="line U7" style="stroke: #3690c0;" d="M55 8L56 8"></path><path class="line U2" style="stroke: #ff3300;" d="M52 21L52 22"></path><path class="line U7" style="stroke: #3690c0;" d="M43 9L44 9"></path><path class="line U3" style="stroke: #019377;" d="M38 10L39 11"></path><path class="line U9" style="stroke: #ff7300;" d="M46 19L47 20"></path><path class="line U2" style="stroke: #ff3300;" d="M42 11L43 10"></path><path class="line U8" style="stroke: #0a3c85;" d="M49 5L49 6"></path><path class="line U2" style="stroke: #ff3300;" d="M34 13L35 13"></path><path class="line U3" style="stroke: #019377;" d="M33 5L34 6"></path><path class="line U3" style="stroke: #019377;" d="M34 6L35 7"></path><path class="line U8" style="stroke: #0a3c85;" d="M48 19L48 20"></path><path class="line U8" style="stroke: #0a3c85;" d="M49 8L48 9"></path><path class="line U2" style="stroke: #ff3300;" d="M45 11L46 12"></path><path class="line U6" style="stroke: #6f4e9c;" d="M46 23L46 24"></path><path class="line U4" style="stroke: #ffd900;" d="M41 7L41 8"></path><path class="line U4" style="stroke: #ffd900;" d="M41 9L41 10"></path><path class="line U6" style="stroke: #6f4e9c;" d="M46 27L46 28"></path><path class="line U8" style="stroke: #0a3c85;" d="M48 16L48 17"></path><path class="line U8" style="stroke: #0a3c85;" d="M48 9L48 10"></path><path class="line U2" style="stroke: #ff3300;" d="M47 13L48 14"></path><path class="line U2" style="stroke: #ff3300;" d="M35 13L36 13"></path><path class="line U9" style="stroke: #ff7300;" d="M39 7L39 8"></path><path class="line U3" style="stroke: #019377;" d="M39 11L40 12"></path><path class="line U8" style="stroke: #0a3c85;" d="M48 13L48 14"></path><path class="line U2" style="stroke: #ff3300;" d="M46 12L47 13"></path><path class="line U2" style="stroke: #ff3300;" d="M40 13L41 12"></path><path class="line U9" style="stroke: #ff7300;" d="M39 10L39 11"></path><path class="line U6" style="stroke: #6f4e9c;" d="M46 5L46 6"></path><path class="line U6" style="stroke: #6f4e9c;" d="M46 2L46 3"></path><path class="line U7" style="stroke: #3690c0;" d="M29 21L30 20"></path><path class="line U7" style="stroke: #3690c0;" d="M37 12L37 11"></path><path class="line U8" style="stroke: #0a3c85;" d="M48 23L48 24"></path><path class="line U7" style="stroke: #3690c0;" d="M31 19L32 18"></path><path class="line U3" style="stroke: #019377;" d="M29 1L30 2"></path><path class="line U1" style="stroke: #55a822;" d="M38 12L39 12"></path><path class="line U7" style="stroke: #3690c0;" d="M33 17L34 16"></path><path class="line U8" style="stroke: #0a3c85;" d="M48 12L48 13"></path><path class="line U1" style="stroke: #55a822;" d="M39 12L41 12"></path><path class="line U6" style="stroke: #6f4e9c;" d="M46 18L46 19"></path><path class="line U8" style="stroke: #0a3c85;" d="M48 22L48 23"></path><path class="line U9" style="stroke: #ff7300;" d="M44 17L45 18"></path><path class="line U8" style="stroke: #0a3c85;" d="M48 15L48 16"></path><path class="line U7" style="stroke: #3690c0;" d="M42 9L43 9"></path><path class="line U6" style="stroke: #6f4e9c;" d="M46 16L46 17"></path><path class="line U2" style="stroke: #ff3300;" d="M38 13L39 13"></path><path class="line U7" style="stroke: #3690c0;" d="M37 13L37 12"></path><path class="line U8" style="stroke: #0a3c85;" d="M48 24L48 25"></path><path class="line U7" style="stroke: #3690c0;" d="M37 10L37 9"></path><path class="line U9" style="stroke: #ff7300;" d="M39 5L39 6"></path><path class="line U3" style="stroke: #019377;" d="M32 4L33 5"></path><path class="line U7" style="stroke: #3690c0;" d="M32 18L33 17"></path><path class="line U1" style="stroke: #55a822;" d="M50 12L51 13"></path><path class="line U7" style="stroke: #3690c0;" d="M45 9L46 8"></path><path class="line U8" style="stroke: #0a3c85;" d="M48 20L48 21"></path><path class="line U7" style="stroke: #3690c0;" d="M51 8L52 8"></path><path class="line U1" style="stroke: #55a822;" d="M43 11L44 10"></path><path class="line U7" style="stroke: #3690c0;" d="M56 8L57 8"></path><path class="line U2" style="stroke: #ff3300;" d="M50 16L51 17"></path><path class="line U1" style="stroke: #55a822;" d="M44 10L45 9"></path><path class="line U9" style="stroke: #ff7300;" d="M39 12L40 13"></path><path class="line U7" style="stroke: #3690c0;" d="M60 8L61 8"></path><path class="line U8" style="stroke: #0a3c85;" d="M48 11L48 12"></path><path class="line U1" style="stroke: #55a822;" d="M48 10L49 11"></path><path class="line U6" style="stroke: #6f4e9c;" d="M46 3L46 4"></path><path class="line U2" style="stroke: #ff3300;" d="M49 15L50 16"></path><path class="line U8" style="stroke: #0a3c85;" d="M49 6L49 7"></path><path class="line U7" style="stroke: #3690c0;" d="M44 9L45 9"></path><path class="line U2" style="stroke: #ff3300;" d="M52 20L52 21"></path><path class="line U7" style="stroke: #3690c0;" d="M57 8L58 8"></path><path class="line U6" style="stroke: #6f4e9c;" d="M46 20L46 21"></path><path class="line U7" style="stroke: #3690c0;" d="M26 24L27 23"></path><path class="line U9" style="stroke: #ff7300;" d="M39 11L39 12"></path><path class="line U1" style="stroke: #55a822;" d="M47 9L48 10"></path><path class="line U1" style="stroke: #55a822;" d="M49 11L50 12"></path><path class="line U6" style="stroke: #6f4e9c;" d="M46 6L46 7"></path><path class="line U6" style="stroke: #6f4e9c;" d="M46 14L46 15"></path><path class="line U8" style="stroke: #0a3c85;" d="M48 14L48 15"></path><path class="line U2" style="stroke: #ff3300;" d="M52 23L52 24"></path><path class="line U4" style="stroke: #ffd900;" d="M41 10L42 11"></path><path class="line U7" style="stroke: #3690c0;" d="M25 25L26 24"></path><path class="line U4" style="stroke: #ffd900;" d="M41 8L41 9"></path><path class="line U2" style="stroke: #ff3300;" d="M52 24L52 25"></path><path class="line U6" style="stroke: #6f4e9c;" d="M46 15L46 16"></path><path class="line U9" style="stroke: #ff7300;" d="M40 13L41 14"></path><path class="line U7" style="stroke: #3690c0;" d="M54 8L55 8"></path><path class="line U2" style="stroke: #ff3300;" d="M43 10L44 10"></path><path class="line U8" style="stroke: #0a3c85;" d="M48 21L48 22"></path><path class="line U6" style="stroke: #6f4e9c;" d="M46 24L46 25"></path><path class="line U7" style="stroke: #3690c0;" d="M27 23L28 22"></path><path class="line U6" style="stroke: #6f4e9c;" d="M46 26L46 27"></path><path class="line U7" style="stroke: #3690c0;" d="M37 11L37 10"></path><path class="line U9" style="stroke: #ff7300;" d="M42 15L43 16"></path><path class="line U9" style="stroke: #ff7300;" d="M45 18L46 19"></path><path class="line U2" style="stroke: #ff3300;" d="M44 10L45 11"></path><path class="line U9" style="stroke: #ff7300;" d="M41 14L42 15"></path><path class="line U2" style="stroke: #ff3300;" d="M48 14L49 15"></path><path class="line U8" style="stroke: #0a3c85;" d="M49 7L49 8"></path><path class="line U2" style="stroke: #ff3300;" d="M52 22L52 23"></path><path class="line U7" style="stroke: #3690c0;" d="M53 8L54 8"></path><path class="line U2" style="stroke: #ff3300;" d="M52 19L52 20"></path><path class="line U6" style="stroke: #6f4e9c;" d="M46 22L46 23"></path><path class="line U9" style="stroke: #ff7300;" d="M39 6L39 7"></path><path class="line U2" style="stroke: #ff3300;" d="M33 13L34 13"></path><path class="line U7" style="stroke: #3690c0;" d="M47 8L48 8"></path><path class="line U7" style="stroke: #3690c0;" d="M38 9L39 9"></path><circle class="station" data-id="900000083101" data-label="U Zwickauer Damm" cx="60" cy="8" r="0.1" fill="#3690c0"></circle><circle class="station" data-id="900000045102" data-label="S+U Heidelberger Platz" cx="36" cy="8" r="0.1" fill="#019377"></circle><circle class="station" data-id="900000055101" data-label="U Viktoria-Luise-Platz" cx="41" cy="10" r="0.1" fill="#ffd900"></circle><circle class="station" data-id="900000086160" data-label="U Lindauer Allee" cx="48" cy="25" r="0.1" fill="#0a3c85"></circle><circle class="station" data-id="900000002201" data-label="U Birkenstr." cx="43" cy="16" r="0.1" fill="#ff7300"></circle><circle class="station" data-id="900000100701" data-label="Berlin, U Stadtmitte U2" cx="48" cy="14" r="0.1" fill="#ff3300"></circle><circle class="station" data-id="900000051201" data-label="U Freie Universität (Thielplatz)" cx="31" cy="3" r="0.1" fill="#019377"></circle><circle class="station" data-id="900000005252" data-label="U Mendelssohn-Bartholdy-Park" cx="45" cy="11" r="0.1" fill="#ff3300"></circle><circle class="station" data-id="900000022201" data-label="U Deutsche Oper" cx="38" cy="13" r="0.1" fill="#ff3300"></circle><circle class="station" data-id="900000083201" data-label="U Rudow" cx="61" cy="8" r="0.1" fill="#3690c0"></circle><circle class="station transit" data-id="900000056102" data-label="U Nollendorfplatz" cx="42" cy="11" r="0.12" fill="#333"></circle><circle class="station" data-id="900000068302" data-label="U Kaiserin-Augusta-Str." cx="46" cy="3" r="0.1" fill="#6f4e9c"></circle><circle class="station" data-id="900000009104" data-label="S+U Wedding" cx="46" cy="18" r="0.1" fill="#6f4e9c"></circle><circle class="station" data-id="900000100015" data-label="U Klosterstr." cx="52" cy="18" r="0.1" fill="#ff3300"></circle><circle class="station" data-id="900000022101" data-label="U Sophie-Charlotte-Platz" cx="36" cy="13" r="0.1" fill="#ff3300"></circle><circle class="station" data-id="900000035101" data-label="U Siemensdamm" cx="31" cy="19" r="0.1" fill="#3690c0"></circle><circle class="station" data-id="900000017102" data-label="U Platz der Luftbrücke" cx="46" cy="7" r="0.1" fill="#6f4e9c"></circle><circle class="station" data-id="900000100016" data-label="U Rosa-Luxemburg-Platz" cx="52" cy="20" r="0.1" fill="#ff3300"></circle><circle class="station" data-id="900000043101" data-label="U Hohenzollernplatz" cx="38" cy="10" r="0.1" fill="#019377"></circle><circle class="station" data-id="900000056104" data-label="U Bülowstr." cx="43" cy="10" r="0.1" fill="#ff3300"></circle><circle class="station" data-id="900000100013" data-label="U Spittelmarkt" cx="50" cy="16" r="0.1" fill="#ff3300"></circle><circle class="station" data-id="900000009201" data-label="U Nauener Platz" cx="47" cy="20" r="0.1" fill="#ff7300"></circle><circle class="station" data-id="900000024202" data-label="U Wilmersdorfer Str." cx="37" cy="12" r="0.1" fill="#3690c0"></circle><circle class="station" data-id="900000034101" data-label="U Paulsternstr." cx="29" cy="21" r="0.1" fill="#3690c0"></circle><circle class="station" data-id="900000025202" data-label="U Ruhleben" cx="31" cy="13" r="0.1" fill="#ff3300"></circle><circle class="station transit" data-id="900000012103" data-label="U Hallesches Tor" cx="46" cy="9" r="0.12" fill="#333"></circle><circle class="station" data-id="900000068202" data-label="U Alt-Tempelhof" cx="46" cy="4" r="0.1" fill="#6f4e9c"></circle><circle class="station" data-id="900000088201" data-label="U Holzhauser Str." cx="46" cy="26" r="0.1" fill="#6f4e9c"></circle><circle class="station" data-id="900000100019" data-label="U Oranienburger Tor" cx="46" cy="14" r="0.1" fill="#6f4e9c"></circle><circle class="station" data-id="900000029301" data-label="U Altstadt Spandau" cx="26" cy="24" r="0.1" fill="#3690c0"></circle><circle class="station" data-id="900000003101" data-label="U Hansaplatz" cx="41" cy="14" r="0.1" fill="#ff7300"></circle><circle class="station" data-id="900000100027" data-label="U Französische Str." cx="46" cy="12" r="0.1" fill="#6f4e9c"></circle><circle class="station transit" data-id="900000041101" data-label="U Fehrbelliner Platz" cx="37" cy="9" r="0.12" fill="#333"></circle><circle class="station" data-id="900000009203" data-label="U Pankstr." cx="48" cy="20" r="0.1" fill="#0a3c85"></circle><circle class="station" data-id="900000078103" data-label="U Karl-Marx-Str." cx="51" cy="8" r="0.1" fill="#3690c0"></circle><circle class="station" data-id="900000043201" data-label="U Güntzelstr." cx="39" cy="10" r="0.1" fill="#ff7300"></circle><circle class="station" data-id="900000007110" data-label="U Bernauer Str." cx="48" cy="17" r="0.1" fill="#0a3c85"></circle><circle class="station" data-id="900000009101" data-label="U Amrumer Str." cx="45" cy="18" r="0.1" fill="#ff7300"></circle><circle class="station" data-id="900000100010" data-label="U Mohrenstr." cx="47" cy="13" r="0.1" fill="#ff3300"></circle><circle class="station" data-id="900000050282" data-label="U Onkel Toms Hütte" cx="29" cy="1" r="0.1" fill="#019377"></circle><circle class="station" data-id="900000011101" data-label="U Rehberge" cx="46" cy="21" r="0.1" fill="#6f4e9c"></circle><circle class="station" data-id="900000050201" data-label="U Krumme Lanke" cx="28" r="0.1" fill="#019377"></circle><circle class="station" data-id="900000041201" data-label="U Konstanzer Str." cx="37" cy="10" r="0.1" fill="#3690c0"></circle><circle class="station transit" data-id="900000009202" data-label="U Osloer Str." cx="48" cy="21" r="0.12" fill="#333"></circle><circle class="station" data-id="900000069271" data-label="U Ullsteinstr." cx="46" cy="2" r="0.1" fill="#6f4e9c"></circle><circle class="station" data-id="900000023302" data-label="U Adenauerplatz" cx="37" cy="11" r="0.1" fill="#3690c0"></circle><circle class="station" data-id="900000082202" data-label="U Johannisthaler Chaussee" cx="57" cy="8" r="0.1" fill="#3690c0"></circle><circle class="station" data-id="900000100023" data-label="U Rosenthaler Platz" cx="48" cy="16" r="0.1" fill="#0a3c85"></circle><circle class="station" data-id="900000068201" data-label="S+U Tempelhof" cx="46" cy="5" r="0.1" fill="#6f4e9c"></circle><circle class="station" data-id="900000096410" data-label="U Rathaus Reinickendorf" cx="48" cy="27" r="0.1" fill="#0a3c85"></circle><circle class="station" data-id="900000016201" data-label="U Schönleinstr." cx="48" cy="9" r="0.1" fill="#0a3c85"></circle><circle class="station" data-id="900000062781" data-label="S+U Rathaus Steglitz [U9]" cx="39" cy="4" r="0.1" fill="#ff7300"></circle><circle class="station" data-id="900000100001" data-label="S+U Friedrichstr." cx="46" cy="13" r="0.1" fill="#6f4e9c"></circle><circle class="station" data-id="900000044202" data-label="S+U Bundesplatz" cx="39" cy="8" r="0.1" fill="#ff7300"></circle><circle class="station" data-id="900000023202" data-label="U Augsburger Str." cx="40" cy="12" r="0.1" fill="#019377"></circle><circle class="station" data-id="900000029302" data-label="S+U Rathaus Spandau" cx="25" cy="25" r="0.1" fill="#3690c0"></circle><circle class="station" data-id="900000110006" data-label="U Eberswalder Str." cx="52" cy="22" r="0.1" fill="#ff3300"></circle><circle class="station" data-id="900000083102" data-label="U Wutzkyallee" cx="59" cy="8" r="0.1" fill="#3690c0"></circle><circle class="station" data-id="900000016101" data-label="U Gneisenaustr." cx="47" cy="8" r="0.1" fill="#3690c0"></circle><circle class="station" data-id="900000026202" data-label="U Kaiserdamm" cx="35" cy="13" r="0.1" fill="#ff3300"></circle><circle class="station" data-id="900000100011" data-label="U Stadtmitte" cx="46" cy="11" r="0.1" fill="#6f4e9c"></circle><circle class="station" data-id="900000100014" data-label="U Märkisches Museum" cx="51" cy="17" r="0.1" fill="#ff3300"></circle><circle class="station" data-id="900000068101" data-label="U Paradestr." cx="46" cy="6" r="0.1" fill="#6f4e9c"></circle><circle class="station" data-id="900000100703" data-label="S+U Alexanderplatz [U2]" cx="52" cy="19" r="0.1" fill="#ff3300"></circle><circle class="station" data-id="900000011102" data-label="U Afrikanische Str." cx="46" cy="22" r="0.1" fill="#6f4e9c"></circle><circle class="station" data-id="900000089301" data-label="U Alt-Tegel" cx="46" cy="28" r="0.1" fill="#6f4e9c"></circle><circle class="station" data-id="900000078102" data-label="U Rathaus Neukölln" cx="50" cy="8" r="0.1" fill="#3690c0"></circle><circle class="station" data-id="900000088202" data-label="U Borsigwerke" cx="46" cy="27" r="0.1" fill="#6f4e9c"></circle><circle class="station" data-id="900000018102" data-label="U Halemweg" cx="32" cy="18" r="0.1" fill="#3690c0"></circle><circle class="station" data-id="900000100051" data-label="U Weinmeisterstr." cx="48" cy="15" r="0.1" fill="#0a3c85"></circle><circle class="station" data-id="900000054102" data-label="U Kleistpark" cx="43" cy="9" r="0.1" fill="#3690c0"></circle><circle class="station" data-id="900000080201" data-label="U Blaschkoallee" cx="54" cy="8" r="0.1" fill="#3690c0"></circle><circle class="station" data-id="900000026201" data-label="Berlin, U Theodor-Heuss-Platz" cx="34" cy="13" r="0.1" fill="#ff3300"></circle><circle class="station" data-id="900000061102" data-label="U Friedrich-Wilhelm-Platz" cx="39" cy="7" r="0.1" fill="#ff7300"></circle><circle class="station" data-id="900000026101" data-label="U Neu-Westend" cx="33" cy="13" r="0.1" fill="#ff3300"></circle><circle class="station" data-id="900000036101" data-label="U Rohrdamm" cx="30" cy="20" r="0.1" fill="#3690c0"></circle><circle class="station" data-id="900000100501" data-label="U Schwartzkopffstr." cx="46" cy="16" r="0.1" fill="#6f4e9c"></circle><circle class="station" data-id="900000019204" data-label="U Mierendorffplatz" cx="35" cy="15" r="0.1" fill="#3690c0"></circle><circle class="station" data-id="900000051202" data-label="U Breitenbachplatz" cx="34" cy="6" r="0.1" fill="#019377"></circle><circle class="station" data-id="900000130002" data-label="S+U Pankow" cx="52" cy="25" r="0.1" fill="#ff3300"></circle><circle class="station" data-id="900000003104" data-label="U Turmstr." cx="42" cy="15" r="0.1" fill="#ff7300"></circle><circle class="station" data-id="900000054101" data-label="U Rathaus Schöneberg" cx="41" cy="8" r="0.1" fill="#ffd900"></circle><circle class="station transit" data-id="900000017103" data-label="U Gleisdreieck" cx="44" cy="10" r="0.12" fill="#333"></circle><circle class="station" data-id="900000051303" data-label="U Dahlem-Dorf" cx="32" cy="4" r="0.1" fill="#019377"></circle><circle class="station" data-id="900000070101" data-label="U Westphalweg" cx="46" cy="1" r="0.1" fill="#6f4e9c"></circle><circle class="station" data-id="900000008102" data-label="U Reinickendorfer Str." cx="46" cy="17" r="0.1" fill="#6f4e9c"></circle><circle class="station" data-id="900000110005" data-label="U Senefelderplatz" cx="52" cy="21" r="0.1" fill="#ff3300"></circle><circle class="station transit" data-id="900000013102" data-label="U Kottbusser Tor" cx="48" cy="10" r="0.12" fill="#333"></circle><circle class="station" data-id="900000120004" data-label="S+U Warschauer Str." cx="51" cy="13" r="0.1" fill="#55a822"></circle><circle class="station" data-id="900000051302" data-label="U Podbielskiallee" cx="33" cy="5" r="0.1" fill="#019377"></circle><circle class="station" data-id="900000078272" data-label="S+U Neukölln [U7]" cx="52" cy="8" r="0.1" fill="#3690c0"></circle><circle class="station" data-id="900000009103" data-label="U Seestr." cx="46" cy="20" r="0.1" fill="#6f4e9c"></circle><circle class="station" data-id="900000012102" data-label="U Kochstr./Checkpoint Charlie" cx="46" cy="10" r="0.1" fill="#6f4e9c"></circle><circle class="station transit" data-id="900000044201" data-label="U Berliner Str." cx="39" cy="9" r="0.12" fill="#333"></circle><circle class="station" data-id="900000007103" data-label="U Voltastr." cx="48" cy="18" r="0.1" fill="#0a3c85"></circle><circle class="station" data-id="900000013103" data-label="U Prinzenstr." cx="47" cy="9" r="0.1" fill="#55a822"></circle><circle class="station transit" data-id="900000023203" data-label="U Kurfürstendamm" cx="39" cy="12" r="0.12" fill="#333"></circle><circle class="station" data-id="900000080202" data-label="U Grenzallee" cx="53" cy="8" r="0.1" fill="#3690c0"></circle><circle class="station" data-id="900000034102" data-label="U Haselhorst" cx="28" cy="22" r="0.1" fill="#3690c0"></circle><circle class="station" data-id="900000100705" data-label="S+U Alexanderplatz [U8]" cx="48" cy="14" r="0.1" fill="#0a3c85"></circle><circle class="station" data-id="900000025203" data-label="U Olympia-Stadion" cx="32" cy="13" r="0.1" fill="#ff3300"></circle><circle class="station" data-id="900000051301" data-label="U Oskar-Helene-Heim" cx="30" cy="2" r="0.1" fill="#019377"></circle><circle class="station" data-id="900000085203" data-label="U Residenzstr." cx="48" cy="23" r="0.1" fill="#0a3c85"></circle><circle class="station" data-id="900000085104" data-label="U Paracelsus-Bad" cx="48" cy="24" r="0.1" fill="#0a3c85"></circle><circle class="station" data-id="900000001201" data-label="S+U Westhafen" cx="44" cy="17" r="0.1" fill="#ff7300"></circle><circle class="station transit" data-id="900000042101" data-label="U Spichernstr." cx="39" cy="11" r="0.12" fill="#333"></circle><circle class="station" data-id="900000079201" data-label="U Leinestr." cx="49" cy="6" r="0.1" fill="#0a3c85"></circle><circle class="station" data-id="900000045101" data-label="U Rüdesheimer Platz" cx="35" cy="7" r="0.1" fill="#019377"></circle><circle class="station" data-id="900000100720" data-label="S+U Potsdamer Platz (Bln) [U2]" cx="46" cy="12" r="0.1" fill="#ff3300"></circle><circle class="station" data-id="900000014102" data-label="U Schlesisches Tor" cx="50" cy="12" r="0.1" fill="#55a822"></circle><circle class="station" data-id="900000100004" data-label="S+U Jannowitzbrücke" cx="48" cy="13" r="0.1" fill="#0a3c85"></circle><circle class="station" data-id="900000013101" data-label="U Moritzplatz" cx="48" cy="11" r="0.1" fill="#0a3c85"></circle><circle class="station transit" data-id="900000078101" data-label="U Hermannplatz" cx="49" cy="8" r="0.12" fill="#333"></circle><circle class="station" data-id="900000041102" data-label="U Blissestr." cx="38" cy="9" r="0.1" fill="#3690c0"></circle><circle class="station" data-id="900000022202" data-label="U Richard-Wagner-Platz" cx="36" cy="14" r="0.1" fill="#3690c0"></circle><circle class="station" data-id="900000070301" data-label="U Alt-Mariendorf" cx="46" r="0.1" fill="#6f4e9c"></circle><circle class="station" data-id="900000082201" data-label="U Lipschitzallee" cx="58" cy="8" r="0.1" fill="#3690c0"></circle><circle class="station" data-id="900000033101" data-label="U Zitadelle" cx="27" cy="23" r="0.1" fill="#3690c0"></circle><circle class="station transit" data-id="900000009102" data-label="U Leopoldplatz" cx="46" cy="19" r="0.12" fill="#333"></circle><circle class="station" data-id="900000054103" data-label="U Eisenacher Str." cx="42" cy="9" r="0.1" fill="#3690c0"></circle><circle class="station" data-id="900000062203" data-label="U Schloßstr." cx="39" cy="5" r="0.1" fill="#ff7300"></circle><circle class="station" data-id="900000014101" data-label="U Görlitzer Bahnhof" cx="49" cy="11" r="0.1" fill="#55a822"></circle><circle class="station" data-id="900000080401" data-label="U Parchimer Allee" cx="55" cy="8" r="0.1" fill="#3690c0"></circle><circle class="station" data-id="900000086102" data-label="U Kurt-Schumacher-Platz" cx="46" cy="23" r="0.1" fill="#6f4e9c"></circle><circle class="station" data-id="900000080402" data-label="U Britz-Süd" cx="56" cy="8" r="0.1" fill="#3690c0"></circle><circle class="station" data-id="900000054105" data-label="S+U Innsbrucker Platz" cx="41" cy="7" r="0.1" fill="#ffd900"></circle><circle class="station" data-id="900000005201" data-label="U Kurfürstenstr." cx="43" cy="11" r="0.1" fill="#55a822"></circle><circle class="station" data-id="900000086101" data-label="U Otisstr." cx="46" cy="25" r="0.1" fill="#6f4e9c"></circle><circle class="station" data-id="900000087101" data-label="U Scharnweberstr." cx="46" cy="24" r="0.1" fill="#6f4e9c"></circle><circle class="station transit" data-id="900000017101" data-label="U Mehringdamm" cx="46" cy="8" r="0.12" fill="#333"></circle><circle class="station" data-id="900000130011" data-label="U Vinetastr." cx="52" cy="24" r="0.1" fill="#ff3300"></circle><circle class="station" data-id="900000100009" data-label="U Naturkundemuseum" cx="46" cy="15" r="0.1" fill="#6f4e9c"></circle><circle class="station" data-id="900000100008" data-label="U Heinrich-Heine-Str." cx="48" cy="12" r="0.1" fill="#0a3c85"></circle><circle class="station" data-id="900000061101" data-label="U Walther-Schreiber-Platz" cx="39" cy="6" r="0.1" fill="#ff7300"></circle><circle class="station" data-id="900000100012" data-label="U Hausvogteiplatz" cx="49" cy="15" r="0.1" fill="#ff3300"></circle><circle class="station" data-id="900000057103" data-label="S+U Yorckstr." cx="44" cy="9" r="0.1" fill="#3690c0"></circle><circle class="station" data-id="900000016202" data-label="U Südstern" cx="48" cy="8" r="0.1" fill="#3690c0"></circle><circle class="station" data-id="900000007102" data-label="S+U Gesundbrunnen" cx="48" cy="19" r="0.1" fill="#0a3c85"></circle><circle class="station transit" data-id="900000024201" data-label="U Bismarckstr." cx="37" cy="13" r="0.12" fill="#333"></circle><circle class="station transit" data-id="900000017104" data-label="U Möckernbrücke" cx="45" cy="9" r="0.12" fill="#333"></circle><circle class="station" data-id="900000023101" data-label="U Ernst-Reuter-Platz" cx="39" cy="13" r="0.1" fill="#ff3300"></circle><circle class="station" data-id="900000079221" data-label="S+U Hermannstr." cx="49" cy="5" r="0.1" fill="#0a3c85"></circle><circle class="station" data-id="900000096197" data-label="S+U Wittenau [U8]" cx="48" cy="28" r="0.1" fill="#0a3c85"></circle><circle class="station" data-id="900000018101" data-label="U Jakob-Kaiser-Platz" cx="33" cy="17" r="0.1" fill="#3690c0"></circle><circle class="station" data-id="900000085202" data-label="U Franz-Neumann-Platz" cx="48" cy="22" r="0.1" fill="#0a3c85"></circle><circle class="station transit" data-id="900000055102" data-label="U Bayerischer Platz" cx="41" cy="9" r="0.12" fill="#333"></circle><circle class="station" data-id="900000023301" data-label="U Uhlandstr." cx="38" cy="12" r="0.1" fill="#55a822"></circle><circle class="station" data-id="900000079202" data-label="U Boddinstr." cx="49" cy="7" r="0.1" fill="#0a3c85"></circle><circle class="station" data-id="900000096458" data-label="S+U Karl-Bonhoeffer-Nervenklinik" cx="48" cy="26" r="0.1" fill="#0a3c85"></circle><circle class="station transit" data-id="900000056101" data-label="U Wittenbergplatz" cx="41" cy="12" r="0.12" fill="#333"></circle><circle class="station" data-id="900000020201" data-label="S+U Jungfernheide" cx="34" cy="16" r="0.1" fill="#3690c0"></circle><circle class="station transit" data-id="900000023201" data-label="S+U Zoologischer Garten" cx="40" cy="13" r="0.12" fill="#333"></circle><circle class="station" data-id="900000110001" data-label="S+U Schönhauser Allee" cx="52" cy="23" r="0.1" fill="#ff3300"></circle></g></svg>